<svg width="116" height="83" viewBox="0 0 116 83" fill="none" xmlns="http://www.w3.org/2000/svg">
<path fill-rule="evenodd" clip-rule="evenodd" d="M57.8324 14.762C60.9211 12.9517 62.4398 10.6056 62.3394 6.97915C62.3256 4.65277 62.3197 2.32638 62.3197 0C54.6865 5.7086 47.0672 11.4349 39.4557 17.1691C39.449 17.1754 39.4424 17.1816 39.4357 17.1878C37.84 18.4019 36.5035 19.8651 35.3506 21.4083C32.2379 25.5774 32.4819 32.0368 32.6818 37.3307C32.7033 37.8997 32.7243 38.4553 32.7405 38.993C32.8193 41.6563 35.9671 42.2472 37.9685 41.1835C39.2198 40.5182 40.5181 39.8064 41.7971 39.1053C42.7711 38.5714 43.7339 38.0437 44.6561 37.5472C47.9261 35.7842 46.3167 32.5497 44.0967 30.763C44.0967 30.763 44.0965 30.7629 44.096 30.7625C44.0962 30.762 44.0964 30.7615 44.0967 30.7611C41.067 26.847 42.117 23.8784 46.3364 21.4516C50.1441 19.2611 54.0503 16.98 57.8324 14.762ZM38.977 17.6364C39.0901 17.5209 39.2048 17.4075 39.3212 17.2962C39.2002 17.4092 39.0856 17.5227 38.977 17.6364Z" fill="#5956E8"/>
<path fill-rule="evenodd" clip-rule="evenodd" d="M57.3777 26.9213C54.289 28.7316 52.7702 31.0777 52.8707 34.7042C52.8845 37.0306 52.8904 39.357 52.8904 41.6833C60.5235 35.9747 68.1429 30.2484 75.7544 24.5142C75.761 24.508 75.7676 24.5019 75.7742 24.4957C77.37 23.2816 78.7065 21.8184 79.8595 20.2751C82.9722 16.1059 82.7282 9.64653 82.5283 4.35268C82.5068 3.78367 82.4858 3.22812 82.4696 2.69033C82.3908 0.0270996 79.243 -0.563855 77.2416 0.499858C75.9903 1.16519 74.6921 1.87685 73.4132 2.57793C72.4392 3.11188 71.4763 3.63968 70.554 4.13619C67.284 5.8992 68.8934 9.13368 71.1134 10.9203C71.1134 10.9203 71.1136 10.9205 71.1141 10.9209C71.1138 10.9213 71.1136 10.9218 71.1134 10.9223C74.143 14.8364 73.0931 17.8049 68.8737 20.2318C65.066 22.4222 61.1598 24.7033 57.3777 26.9213ZM76.2348 24.0451C76.1206 24.1619 76.0045 24.2766 75.8869 24.3891C76.0092 24.2748 76.1251 24.1601 76.2348 24.0451Z" fill="#5956E8"/>
<path d="M19.6028 63.4847H15.2774C15.1983 62.925 15.037 62.428 14.7935 61.9935C14.5499 61.5524 14.2371 61.1771 13.8553 60.8677C13.4734 60.5582 13.0323 60.3212 12.532 60.1566C12.0382 59.992 11.5016 59.9097 10.9223 59.9097C9.87547 59.9097 8.96364 60.1698 8.18677 60.6899C7.40989 61.2034 6.80749 61.954 6.37955 62.9415C5.95162 63.9225 5.73765 65.1141 5.73765 66.5164C5.73765 67.9582 5.95162 69.1696 6.37955 70.1506C6.81407 71.1316 7.41977 71.8722 8.19664 72.3726C8.97351 72.8729 9.87218 73.1231 10.8926 73.1231C11.4654 73.1231 11.9954 73.0474 12.4826 72.896C12.9764 72.7446 13.4142 72.524 13.796 72.2343C14.1779 71.9381 14.4939 71.5792 14.7441 71.1579C15.0008 70.7365 15.1786 70.2559 15.2774 69.7161L19.6028 69.7358C19.4909 70.6641 19.2111 71.5595 18.7634 72.422C18.3223 73.2778 17.7265 74.0448 16.9759 74.7229C16.232 75.3945 15.3432 75.9277 14.3096 76.3228C13.2825 76.7112 12.1205 76.9054 10.8235 76.9054C9.0196 76.9054 7.4066 76.4972 5.98454 75.6809C4.56905 74.8645 3.44983 73.6827 2.62688 72.1356C1.8105 70.5884 1.40232 68.7154 1.40232 66.5164C1.40232 64.3109 1.81709 62.4346 2.64663 60.8874C3.47617 59.3402 4.60197 58.1618 6.02404 57.352C7.4461 56.5356 9.04593 56.1274 10.8235 56.1274C11.9954 56.1274 13.0817 56.292 14.0824 56.6212C15.0897 56.9504 15.9818 57.431 16.7587 58.063C17.5355 58.6885 18.1676 59.4555 18.6548 60.364C19.1485 61.2725 19.4646 62.3128 19.6028 63.4847ZM22.5901 76.6289V61.4602H26.6687V64.1068H26.8267C27.1032 63.1653 27.5674 62.4543 28.2192 61.9737C28.8709 61.4865 29.6215 61.2429 30.4708 61.2429C30.6814 61.2429 30.9086 61.2561 31.1522 61.2824C31.3958 61.3088 31.6097 61.345 31.7941 61.3911V65.124C31.5966 65.0647 31.3233 65.0121 30.9744 64.966C30.6255 64.9199 30.3062 64.8968 30.0165 64.8968C29.3976 64.8968 28.8446 65.0318 28.3574 65.3017C27.8768 65.5651 27.495 65.9338 27.2119 66.4078C26.9353 66.8818 26.7971 67.4283 26.7971 68.0471V76.6289H22.5901ZM40.1759 76.9252C38.6156 76.9252 37.2725 76.6092 36.1467 75.9771C35.0275 75.3385 34.165 74.4366 33.5593 73.2712C32.9536 72.0994 32.6508 70.7135 32.6508 69.1137C32.6508 67.5533 32.9536 66.184 33.5593 65.0055C34.165 63.827 35.0176 62.9086 36.1171 62.2502C37.2231 61.5919 38.5201 61.2627 40.008 61.2627C41.0087 61.2627 41.9403 61.424 42.8028 61.7466C43.6718 62.0626 44.4289 62.5399 45.0741 63.1785C45.7259 63.8171 46.2328 64.6203 46.5949 65.5881C46.957 66.5493 47.1381 67.6751 47.1381 68.9655V70.121H34.3296V67.5138H43.178C43.178 66.9082 43.0464 66.3716 42.783 65.9041C42.5197 65.4367 42.1543 65.0713 41.6868 64.808C41.226 64.538 40.6894 64.4031 40.0771 64.4031C39.4385 64.4031 38.8723 64.5512 38.3785 64.8475C37.8914 65.1372 37.5095 65.5289 37.233 66.0227C36.9565 66.5098 36.8149 67.053 36.8083 67.6521V70.1308C36.8083 70.8814 36.9466 71.5299 37.2231 72.0763C37.5062 72.6228 37.9045 73.0441 38.418 73.3404C38.9316 73.6366 39.5406 73.7848 40.245 73.7848C40.7124 73.7848 41.1404 73.7189 41.5288 73.5873C41.9173 73.4556 42.2497 73.2581 42.5262 72.9947C42.8028 72.7314 43.0134 72.4088 43.1583 72.0269L47.0492 72.2837C46.8517 73.2186 46.4468 74.0349 45.8345 74.7328C45.2288 75.4241 44.4454 75.964 43.4842 76.3524C42.5295 76.7342 41.4268 76.9252 40.1759 76.9252ZM54.2089 76.9153C53.2411 76.9153 52.3787 76.7474 51.6216 76.4116C50.8644 76.0693 50.2653 75.5656 49.8242 74.9007C49.3897 74.2292 49.1724 73.393 49.1724 72.3923C49.1724 71.5496 49.3272 70.8419 49.6366 70.2691C49.946 69.6963 50.3674 69.2355 50.9006 68.8865C51.4339 68.5376 52.0396 68.2743 52.7177 68.0965C53.4024 67.9187 54.12 67.7937 54.8706 67.7212C55.7528 67.6291 56.4638 67.5435 57.0037 67.4645C57.5435 67.3789 57.9353 67.2538 58.1789 67.0892C58.4225 66.9246 58.5443 66.681 58.5443 66.3584V66.2992C58.5443 65.6737 58.3467 65.1898 57.9517 64.8475C57.5633 64.5051 57.0103 64.3339 56.2926 64.3339C55.5355 64.3339 54.9331 64.5018 54.4854 64.8376C54.0378 65.1668 53.7415 65.5815 53.5966 66.0819L49.7057 65.7659C49.9032 64.8442 50.2917 64.0476 50.871 63.376C51.4504 62.6979 52.1976 62.1778 53.1127 61.8157C54.0345 61.447 55.101 61.2627 56.3124 61.2627C57.1551 61.2627 57.9616 61.3614 58.7319 61.5589C59.5088 61.7564 60.1968 62.0626 60.7959 62.4774C61.4016 62.8921 61.8789 63.4254 62.2278 64.0772C62.5767 64.7224 62.7512 65.496 62.7512 66.3979V76.6289H58.7615V74.5254H58.643C58.3994 74.9995 58.0735 75.4175 57.6653 75.7796C57.2572 76.1351 56.7667 76.4149 56.1939 76.619C55.6211 76.8165 54.9595 76.9153 54.2089 76.9153ZM55.4137 74.0119C56.0326 74.0119 56.579 73.8901 57.0531 73.6465C57.5271 73.3963 57.8991 73.0606 58.169 72.6392C58.4389 72.2179 58.5739 71.7405 58.5739 71.2073V69.5976C58.4422 69.6832 58.2612 69.7622 58.0307 69.8346C57.8069 69.9004 57.5534 69.963 57.2703 70.0222C56.9872 70.0749 56.7041 70.1243 56.421 70.1703C56.1379 70.2099 55.8812 70.2461 55.6507 70.279C55.157 70.3514 54.7257 70.4666 54.3571 70.6246C53.9884 70.7826 53.702 70.9966 53.4979 71.2665C53.2938 71.5299 53.1918 71.8591 53.1918 72.2541C53.1918 72.8269 53.3991 73.2647 53.8139 73.5675C54.2353 73.8638 54.7685 74.0119 55.4137 74.0119ZM74.0833 61.4602V64.6203H64.9485V61.4602H74.0833ZM67.0223 57.826H71.2293V71.9677C71.2293 72.3561 71.2886 72.659 71.4071 72.8762C71.5256 73.0869 71.6902 73.235 71.9008 73.3206C72.1181 73.4062 72.3683 73.449 72.6514 73.449C72.8489 73.449 73.0464 73.4325 73.2439 73.3996C73.4414 73.3601 73.5928 73.3305 73.6982 73.3107L74.3598 76.4413C74.1491 76.5071 73.8529 76.5828 73.471 76.6684C73.0892 76.7606 72.625 76.8165 72.0786 76.8363C71.0647 76.8758 70.1759 76.7408 69.4122 76.4314C68.6551 76.122 68.0659 75.6414 67.6445 74.9896C67.2231 74.3378 67.0158 73.5148 67.0223 72.5207V57.826ZM76.8238 76.6289V61.4602H81.0307V76.6289H76.8238ZM78.9371 59.5048C78.3117 59.5048 77.7751 59.2975 77.3274 58.8827C76.8863 58.4613 76.6657 57.9577 76.6657 57.3717C76.6657 56.7924 76.8863 56.2953 77.3274 55.8805C77.7751 55.4592 78.3117 55.2485 78.9371 55.2485C79.5625 55.2485 80.0958 55.4592 80.5369 55.8805C80.9846 56.2953 81.2085 56.7924 81.2085 57.3717C81.2085 57.9577 80.9846 58.4613 80.5369 58.8827C80.0958 59.2975 79.5625 59.5048 78.9371 59.5048ZM98.5424 61.4602L93.2393 76.6289H88.499L83.1959 61.4602H87.6399L90.7901 72.3133H90.9481L94.0885 61.4602H98.5424ZM107.119 76.9252C105.559 76.9252 104.216 76.6092 103.09 75.9771C101.971 75.3385 101.108 74.4366 100.503 73.2712C99.897 72.0994 99.5941 70.7135 99.5941 69.1137C99.5941 67.5533 99.897 66.184 100.503 65.0055C101.108 63.827 101.961 62.9086 103.06 62.2502C104.166 61.5919 105.463 61.2627 106.951 61.2627C107.952 61.2627 108.884 61.424 109.746 61.7466C110.615 62.0626 111.372 62.5399 112.017 63.1785C112.669 63.8171 113.176 64.6203 113.538 65.5881C113.9 66.5493 114.081 67.6751 114.081 68.9655V70.121H101.273V67.5138H110.121C110.121 66.9082 109.99 66.3716 109.726 65.9041C109.463 65.4367 109.098 65.0713 108.63 64.808C108.169 64.538 107.633 64.4031 107.02 64.4031C106.382 64.4031 105.816 64.5512 105.322 64.8475C104.835 65.1372 104.453 65.5289 104.176 66.0227C103.9 66.5098 103.758 67.053 103.752 67.6521V70.1308C103.752 70.8814 103.89 71.5299 104.166 72.0763C104.45 72.6228 104.848 73.0441 105.361 73.3404C105.875 73.6366 106.484 73.7848 107.188 73.7848C107.656 73.7848 108.084 73.7189 108.472 73.5873C108.861 73.4556 109.193 73.2581 109.47 72.9947C109.746 72.7314 109.957 72.4088 110.102 72.0269L113.993 72.2837C113.795 73.2186 113.39 74.0349 112.778 74.7328C112.172 75.4241 111.389 75.964 110.428 76.3524C109.473 76.7342 108.37 76.9252 107.119 76.9252Z" fill="#181818"/>
</svg>
